<svg width="168.27mm" height="200.38mm" version="1.1" viewBox="0 0 168.27 200.38" xmlns="http://www.w3.org/2000/svg">
 <g transform="matrix(-1 0 0 1 189.35 68.326)" fill="none" stroke="#000" stroke-linejoin="round" stroke-width="1.365">
  <path d="m128.76-54.908c10.782 3.1132 20.35 10.256 26.4 19.709 6.0497 9.4527 8.5284 21.132 6.8393 32.227-0.46637 3.0634-1.2453 6.0993-2.5801 8.8957-1.3348 2.7965-3.2451 5.3527-5.7296 7.2044-2.2646 1.6878-4.9611 2.7557-7.7408 3.2568-2.7796 0.5011-5.6424 0.4474-8.4351 0.02498-5.5853-0.84485-10.835-3.1274-16.025-5.3592-6.8906-2.9635-14.095-5.9312-21.588-5.5921-3.7466 0.16953-7.5015 1.2071-10.601 3.3193-3.0991 2.1122-5.4944 5.3498-6.2443 9.0245-0.75704 3.7099 0.23422 7.7247 2.5759 10.7 2.3417 2.9754 5.9789 4.8752 9.754 5.1681s7.6354-1.006 10.513-3.4672c2.8773-2.4613 4.7512-6.0449 5.2029-9.8043 0.36774-3.0606-0.18516-6.21-1.4655-9.0141-1.2804-2.8041-3.2746-5.2635-5.6799-7.1915-4.8104-3.856-11.137-5.5051-17.301-5.4165s-12.205 1.8034-17.931 4.0894c-5.7257 2.286-11.202 5.1466-16.83 7.6649-9.6618 4.3237-19.776 7.6368-30.123 9.8678"/>
  <path d="m127.73-62.75c3.0289 0.55286 5.9961 1.4431 8.8291 2.649 12.378 5.2686 21.747 16.67 25.449 29.604 3.514 12.279 2.2304 25.57 5.9857 37.777 3.5881 11.664 11.87 21.81 22.579 27.662"/>
 </g>
</svg>
