<svg width="168.27mm" height="200.38mm" version="1.1" viewBox="0 0 168.27 200.38" xmlns="http://www.w3.org/2000/svg">
 <path d="m0.16057 145.94c2.0623-5.0146 6.3209-9.0796 11.426-10.907 5.0914-1.822 10.946-1.3893 15.711 1.1686 4.1015 2.202 7.289 5.8104 11.296 8.1799 4.4603 2.6375 9.7583 3.6127 14.939 3.5139 5.1808-0.0988 10.287-1.2186 15.3-2.5316 5.0126-1.313 9.9827-2.8266 15.083-3.7408 5.1005-0.91416 10.383-1.2159 15.443-0.098 7.3917 1.6332 14.04 6.3917 17.969 12.862s5.0863 14.563 3.1271 21.875c-1.9592 7.312-7.0076 13.743-13.646 17.381-6.638 3.6388-14.775 4.4359-21.993 2.1545" fill="none" stroke="#000" stroke-linejoin="round" stroke-width="1.365"/>
</svg>
